<svg width="22" height="23" viewBox="0 0 22 23" fill="none" xmlns="http://www.w3.org/2000/svg">
<path fill-rule="evenodd" clip-rule="evenodd" d="M15.0354 22.75V14.0369H17.8521L18.2735 10.6416H15.0343V8.47375C15.0343 7.4905 15.2976 6.82 16.6561 6.82H18.3873V3.7825C17.5489 3.68985 16.7062 3.64478 15.8631 3.6475C13.3671 3.6475 11.6587 5.23038 11.6587 8.13625V10.6416H8.83334V14.0369H11.6576V22.75H1.36267C0.701838 22.75 0.166672 22.1943 0.166672 21.508V1.492C0.166672 0.80575 0.701838 0.25 1.36267 0.25H20.6373C21.2982 0.25 21.8333 0.80575 21.8333 1.492V21.508C21.8333 22.1943 21.2982 22.75 20.6373 22.75H15.0354Z" fill="#080808"/>
</svg>
