<svg width="23" height="23" viewBox="0 0 23 23" fill="none" xmlns="http://www.w3.org/2000/svg">
<path d="M6.775 0.25H16.225C19.825 0.25 22.75 3.175 22.75 6.775V16.225C22.75 17.9555 22.0625 19.6152 20.8389 20.8389C19.6152 22.0625 17.9555 22.75 16.225 22.75H6.775C3.175 22.75 0.25 19.825 0.25 16.225V6.775C0.25 5.04446 0.937454 3.3848 2.16113 2.16113C3.3848 0.937454 5.04446 0.25 6.775 0.25ZM6.55 2.5C5.47587 2.5 4.44574 2.9267 3.68622 3.68622C2.9267 4.44574 2.5 5.47587 2.5 6.55V16.45C2.5 18.6887 4.31125 20.5 6.55 20.5H16.45C17.5241 20.5 18.5543 20.0733 19.3138 19.3138C20.0733 18.5543 20.5 17.5241 20.5 16.45V6.55C20.5 4.31125 18.6887 2.5 16.45 2.5H6.55ZM17.4062 4.1875C17.7792 4.1875 18.1369 4.33566 18.4006 4.59938C18.6643 4.8631 18.8125 5.22079 18.8125 5.59375C18.8125 5.96671 18.6643 6.3244 18.4006 6.58812C18.1369 6.85184 17.7792 7 17.4062 7C17.0333 7 16.6756 6.85184 16.4119 6.58812C16.1482 6.3244 16 5.96671 16 5.59375C16 5.22079 16.1482 4.8631 16.4119 4.59938C16.6756 4.33566 17.0333 4.1875 17.4062 4.1875ZM11.5 5.875C12.9918 5.875 14.4226 6.46763 15.4775 7.52252C16.5324 8.57742 17.125 10.0082 17.125 11.5C17.125 12.9918 16.5324 14.4226 15.4775 15.4775C14.4226 16.5324 12.9918 17.125 11.5 17.125C10.0082 17.125 8.57742 16.5324 7.52252 15.4775C6.46763 14.4226 5.875 12.9918 5.875 11.5C5.875 10.0082 6.46763 8.57742 7.52252 7.52252C8.57742 6.46763 10.0082 5.875 11.5 5.875ZM11.5 8.125C10.6049 8.125 9.74645 8.48058 9.11351 9.11351C8.48058 9.74645 8.125 10.6049 8.125 11.5C8.125 12.3951 8.48058 13.2536 9.11351 13.8865C9.74645 14.5194 10.6049 14.875 11.5 14.875C12.3951 14.875 13.2536 14.5194 13.8865 13.8865C14.5194 13.2536 14.875 12.3951 14.875 11.5C14.875 10.6049 14.5194 9.74645 13.8865 9.11351C13.2536 8.48058 12.3951 8.125 11.5 8.125Z" fill="#080808"/>
</svg>
