<svg width="21" height="21" viewBox="0 0 21 21" fill="none" xmlns="http://www.w3.org/2000/svg">
<path d="M17.6269 17.6314H14.6287V12.9323C14.6287 11.8117 14.6062 10.3695 13.065 10.3695C11.5024 10.3695 11.2639 11.589 11.2639 12.8501V17.6314H8.26462V7.96875H11.1446V9.285H11.184C11.5868 8.52675 12.5655 7.72463 14.028 7.72463C17.0655 7.72463 17.628 9.72487 17.628 12.327V17.6314H17.6269ZM4.87837 6.64687C4.6495 6.64717 4.42282 6.60229 4.21132 6.51481C3.99983 6.42732 3.80768 6.29896 3.64589 6.13706C3.4841 5.97517 3.35586 5.78294 3.26851 5.57139C3.18116 5.35984 3.13643 5.13312 3.13687 4.90425C3.1371 4.55981 3.23945 4.22318 3.431 3.93691C3.62254 3.65065 3.89467 3.42761 4.21297 3.29601C4.53127 3.1644 4.88145 3.13014 5.21923 3.19756C5.557 3.26497 5.8672 3.43103 6.1106 3.67474C6.35399 3.91846 6.51965 4.22887 6.58663 4.56673C6.65361 4.90459 6.6189 5.25473 6.48688 5.57286C6.35486 5.89099 6.13148 6.16283 5.84496 6.354C5.55845 6.54518 5.22281 6.6471 4.87837 6.64687ZM6.38137 17.6314H3.37425V7.96875H6.3825V17.6314H6.38137ZM19.1287 0.375H1.87013C1.04212 0.375 0.375 1.0275 0.375 1.83412V19.1659C0.375 19.9725 1.04325 20.625 1.869 20.625H19.1243C19.95 20.625 20.625 19.9725 20.625 19.1659V1.83412C20.625 1.0275 19.95 0.375 19.1243 0.375H19.1287Z" fill="#080808"/>
</svg>
